<?xml version="1.0" encoding="UTF-8"?>
<svg fill="#FFF"  width="350" height="350" version="1.1" viewBox="0 0 700 700" xmlns="http://www.w3.org/2000/svg" xmlns:xlink="http://www.w3.org/1999/xlink">
 <g>
  <path d="m515.83 50.312h-331.66v87.762h20.477v371.61h290.7l0.003906-371.61h20.477zm-309.78 21.875h287.91v44.012h-26.277v-7.5117c0-6.0391-4.8984-10.938-10.938-10.938-6.0391 0-10.938 4.8984-10.938 10.938v7.5117h-14.363v-7.5117c0-6.0391-4.8984-10.938-10.938-10.938s-10.938 4.8984-10.938 10.938v7.5117h-14.363v-7.5117c0-6.0391-4.8984-10.938-10.938-10.938-6.0391 0-10.938 4.8984-10.938 10.938v7.5117h-14.363v-7.5117c0-6.0391-4.8984-10.938-10.938-10.938-6.0391 0-10.938 4.8984-10.938 10.938v7.5117h-14.363v-7.5117c0-6.0391-4.8984-10.938-10.938-10.938-6.0391 0-10.938 4.8984-10.938 10.938v7.5117h-14.363v-7.5117c0-6.0391-4.8984-10.938-10.938-10.938s-10.938 4.8984-10.938 10.938v7.5117h-14.363v-7.5117c0-6.0391-4.8984-10.938-10.938-10.938-6.0391 0-10.938 4.8984-10.938 10.938v7.5117h-22.324zm21.137 304.18h139.29v-21.875h-139.29v-18.75h99.754v-21.875h-99.754v-17.656l126.11-0.003907v-21.875h-126.11v-22.93h202.14v146.8h-202.14zm246.29 111.45h-246.95v-67.734h224.68v-190.55h-224.68v-91.453h246.95z"/>
 </g>
</svg>
