<?xml version="1.0" encoding="UTF-8"?>
<svg fill="#FFF"  width="350" height="350" version="1.1" viewBox="0 0 700 700" xmlns="http://www.w3.org/2000/svg" xmlns:xlink="http://www.w3.org/1999/xlink">
 <g>
  <path d="m601.96 254.05c-22.578 41.266-36.312 87.121-58.043 126.88-0.25781 0.4375-0.79687 0.62109-1.2656 0.42969s-0.72266-0.69922-0.60156-1.1875c3.5-14.195 6.6641-28.324 9.6875-41.973 7.3945-33.383 14.395-64.926 24.895-88.551l-0.003906-0.003907c0.94531-2.1758 1.707-4.4297 2.2734-6.7344 3.625-4.1445 6.0977-9.1641 7.1641-14.566 1.0664-5.3984 0.69531-10.98-1.082-16.191-22.27-65.895-121.67-171.9-208.86-134.93-14.34 6.168-30.586 6.168-44.93 0-87.195-36.969-186.59 68.992-208.86 134.88-0.55078 1.6406-0.97266 3.3242-1.2695 5.0312 0.007812 0.089844-0.007813 0.17969-0.042969 0.26172-1.7734 7.8789-0.94531 16.125 2.3633 23.492 10.195 22.926 17.633 53.945 25.551 86.801 5.1992 21.535 10.645 44.293 17.387 66.77 0.16016 0.49219-0.066406 1.0234-0.53125 1.2461s-1.0234 0.0625-1.3047-0.37109c-26.906-42.82-41.102-94.977-66.434-141.28-6.5469-11.684-9.0234-25.211-7.043-38.453 15.398-95.508 116.55-265.04 245.13-185.37 4.168 2.5742 8.9688 3.9375 13.867 3.9375s9.6992-1.3633 13.867-3.9375c128.58-79.668 229.73 89.863 245.13 185.37 1.9805 13.242-0.49609 26.77-7.043 38.453z"/>
  <path d="m559.61 240.6c-66.578-124.77-151.61-105.49-209.61-105.49s-143.04-19.289-209.61 105.52c-3.4648 6.5859-3.6992 14.402-0.64062 21.188 43.164 97.172 26.574 288.92 210.25 288.92s167.09-191.72 210.25-288.91v-0.003906c3.0664-6.793 2.8281-14.621-0.64062-21.219zm-136.61 123.96c-4.3984 5.3086-7.1562 11.789-7.9258 18.641-0.77344 6.8516 0.47656 13.781 3.5859 19.934 1.2148 2.3672 0.89453 5.2305-0.80859 7.2734-7.1445 8.6484-9.7891 20.16-7.1367 31.062 0.33203 1.3164-0.13672 2.707-1.1992 3.5547-1.0625 0.84766-2.5234 0.99609-3.7344 0.38281-10.055-5.0039-21.879-4.9688-31.902 0.089844-2.3711 1.2109-5.2305 0.88672-7.2734-0.81641-5.3125-4.3984-11.793-7.1484-18.645-7.9102-6.8555-0.76562-13.781 0.48828-19.934 3.6094-2.3516 1.207-5.1953 0.89844-7.2344-0.78516-9.2461-7.3516-21.371-10.012-32.844-7.207-1.3125 0.32422-2.6953-0.14453-3.543-1.1992-0.84375-1.0586-1-2.5078-0.39453-3.7188 5.2695-10.57 5.3555-22.98 0.23047-33.621-1.1836-2.3633-0.85547-5.207 0.83984-7.2344 4.4062-5.3047 7.1602-11.785 7.9336-18.637 0.76953-6.8555-0.48047-13.785-3.5938-19.938-1.207-2.3672-0.88672-5.2266 0.81641-7.2695 7.1406-8.6523 9.7852-20.164 7.1289-31.062-0.32812-1.3203 0.14453-2.707 1.207-3.5547s2.5195-0.99609 3.7344-0.38281c10.051 5 21.875 4.9688 31.898-0.09375 2.3672-1.207 5.2305-0.88672 7.2734 0.82031 5.3125 4.3945 11.793 7.1445 18.648 7.9102 6.8516 0.76172 13.781-0.49219 19.93-3.6094 2.3555-1.207 5.1992-0.89844 7.2383 0.78125 9.2422 7.3516 21.367 10.012 32.84 7.2109 1.3125-0.32422 2.6953 0.14453 3.5391 1.1992 0.84766 1.0547 1 2.5078 0.39844 3.7188-5.2734 10.566-5.3594 22.98-0.23437 33.621 1.1875 2.3633 0.85547 5.2031-0.83984 7.2305z"/>
  <path d="m342.74 357.88c0 4.1055-3.3281 7.4336-7.4336 7.4336-4.1055 0-7.4336-3.3281-7.4336-7.4336 0-4.1055 3.3281-7.4336 7.4336-7.4336 4.1055 0 7.4336 3.3281 7.4336 7.4336"/>
  <path d="m386.25 362.76c0 4.1055-3.3281 7.4336-7.4336 7.4336s-7.4336-3.3281-7.4336-7.4336c0-4.1055 3.3281-7.4336 7.4336-7.4336s7.4336 3.3281 7.4336 7.4336"/>
  <path d="m355.9 391.5c-1.043-0.003906-2.082-0.09375-3.1094-0.27344-5.0938-0.25391-9.3008-4.0586-10.062-9.1016-0.13281-2.8828 2.0859-5.332 4.9688-5.4805 2.5273-0.12109 3.7852 1.9609 5.293 3.8047 1.2188 0.92578 2.8516 1.0938 4.2344 0.4375 2.0117-1.6914 4.1055-3.3125 6.5625-2.2852 2.6641 1.1172 3.9219 4.1758 2.8242 6.8438-2.0117 4.0078-6.2422 6.3984-10.711 6.0547z"/>
 </g>
</svg>
