<?xml version="1.0" encoding="UTF-8"?>
<svg fill="#FFF"  width="350" height="350" version="1.1" viewBox="0 0 700 700" xmlns="http://www.w3.org/2000/svg" xmlns:xlink="http://www.w3.org/1999/xlink">
 <g>
  <path d="m209.3 282.19c45.324 35.176 127.23-49.086 126.44-94.586 0-9.3633-2.9766-17.238-8.5742-22.926l-79.711-79.188c-49.527-52.238-144.46-13.301-142.45 58.625 0 22.137 8.6641 43.051 24.414 58.801l79.801 79.273zm16.711-48.387c3.6758-7 8.3125-13.824 13.648-19.863 9.9766 10.414-1.8359 28.438-15.312 23.363 0.52344-1.2266 1.0508-2.3633 1.6641-3.5zm61.863 9.2734c-30.539 29.664-73.762 45.586-69.039 10.762 30.625 11.551 56.438-30.102 32.898-52.5 58.273-54.074 96.074-21.086 36.137 41.738zm-165.38-98.875c-1.5742-56.789 73.5-87.5 112.52-46.199l59.5 59.148c-22.664 4.5508-42.262 18.727-58.539 34.648h-0.17578c-15.137 15.312-27.125 33.25-32.898 51.273l0.17578 0.17578c-0.61328 2.1875-1.1367 4.4609-1.5742 6.6484-21.613-25.551-83.039-67.023-79.012-105.7z"/>
  <path d="m149.1 150.5c-1.6641-12.512 2.5391-24.762 11.551-33.688 8.1367-7.875-4.375-20.562-12.336-12.426-11.551 9.4492-28.789 50.75-7.875 56 5.25 0 9.4492-4.7266 8.6641-9.8867z"/>
  <path d="m160.65 173.77c-6.3008-12.512-24.852-6.3867-17.238 6.9141 2.4492 3.2383 6.3008 6.9141 9.1016 9.8867 7.7891 8.2266 20.562-4.1133 12.602-12.164 0 0-4.4609-4.5508-4.4609-4.5508z"/>
  <path d="m182.88 195.82c-9.4492-8.9258-21.352 7-10.676 14.086 9.4492 8.9258 21.352-7 10.676-14.086z"/>
  <path d="m570.59 85.574c-32.461-32.375-85.398-32.375-117.95 0l-79.711 79.188c-38.586 47.949 70.699 155.93 117.86 117.43 0 0 34.125-33.863 34.211-33.949l0.17578 0.17578c0.52344-0.52344 0.96094-1.2266 1.4883-1.8359l43.926-43.664c32.289-30.887 32.375-86.449 0-117.34zm-151.11 57.664 0.17578 0.17578c36.836-16.711 97.125 49.961 96.688 82.164 1.5742 9.2734-13.211 18.551-17.762 24.324-8.8359-38.414-42.789-72.539-77.352-87.852-5.25-2.1875-10.414-3.5859-15.836-4.8125zm1.2266 37.977c8.75 4.2891 16.711 10.148 24.062 16.711-10.148 18.199-37.625-0.69922-24.062-16.711zm-8.3984 61.863c-22.312-20.648-51.801-75.336-8.3984-68.164-19.426 34.211 29.836 66.676 53.461 35.352 49.438 55.562 18.551 91.875-45.062 32.812zm146.04-52.5-25.551 25.375c-5.4258-32.727-43.836-74.461-77.176-87.586-5.6875-2.3633-11.023-3.9375-16.188-4.8125l25.637-25.461c62.039-59.762 153.56 30.363 93.273 92.488z"/>
  <path d="m401.8 395.5c-11.375-0.78906-12.512 16.801-1.2266 17.5 201.69 18.898 137.99 63.875-50.574 68.336-113.23 0-175-23.102-175-35 0-8.3125 37.539-27.301 124.43-33.336 4.8125-0.35156 8.4883-4.5508 8.1367-9.3633s-4.4609-8.3125-9.3633-8.1367c-214.81 14.262-170.89 106.23 51.801 103.25 222.6 2.9766 266.7-88.988 51.801-103.25z"/>
  <path d="m237.65 441.61c-4.4609-1.8359-9.625 0.35156-11.375 4.8125-6.0391 21.699 62.301 20.648 102.29 23.449 11.199 0.17578 11.461-17.414 0.17578-17.5-41.824-1.0508-77.613-5.25-91.176-10.762z"/>
  <path d="m461.74 454.39c10.414 4.1992 16.977-12.426 6.3008-16.363-12.512-4.8125-36.836-8.5742-68.512-10.5-4.7266-0.17578-9.0117 3.4141-9.2734 8.2266-0.26172 4.8125 3.3242 9.0117 8.2266 9.2734 29.051 1.8359 52.762 5.3359 63.262 9.3633z"/>
  <path d="m356.21 349.74c-0.26172-43.574-66.414-43.574-66.676 0 0.26172 43.574 66.414 43.574 66.676 0zm-33.336 15.836c-20.562 0.26172-20.562-31.938 0-31.676 20.562-0.26172 20.562 31.938 0 31.676z"/>
  <path d="m351.57 231.09c-43.574 0.26172-43.574 66.414 0 66.676 43.574-0.26172 43.574-66.414 0-66.676zm0 49.176c-20.562 0.26172-20.562-31.938 0-31.676 20.562-0.26172 20.562 31.938 0 31.676z"/>
  <path d="m363.21 328.82c0.26172 43.574 66.414 43.574 66.676 0-0.26172-43.574-66.414-43.574-66.676 0zm33.336-15.836c20.562-0.26172 20.562 31.938 0 31.676-20.562 0.26172-20.562-31.938 0-31.676z"/>
 </g>
</svg>
