<?xml version="1.0" encoding="UTF-8"?>
<svg fill="#FFF"  width="350" height="350" version="1.1" viewBox="0 0 700 700" xmlns="http://www.w3.org/2000/svg" xmlns:xlink="http://www.w3.org/1999/xlink">
 <g>
  <path d="m535.71 146.2c-13.766 3.1758-14.582 47.164-2.7383 98.461s31.859 90.477 45.625 87.301c13.762-3.1758 22.418-41.211 10.578-92.508-11.844-51.297-39.703-96.434-53.465-93.254zm-418.5 255.17c-24.539-29.375-32.551-70.043-32.551-120.95 0-78.332 32.73-143.52 86.023-192.05 46.32-42.176 108.37-65.98 175.54-65.98 78.801 0 139.21 24.246 187.16 80.121 39.953 46.547 74.398 111.37 74.398 177.91 0 48.438-7.8398 85.113-30.223 113.97-18.371 23.684-44.008 41.547-74.441 54.41-0.375 27.957-3.8672 58.27-34.883 75.789-27.137 15.328-87.465 18.598-125.73 18.598-49.758 0-99.492 0.77344-128.05-23.246-18.344-15.43-26.016-47.145-27.613-70.074-28.082-11.527-51.988-27.383-69.629-48.504zm227.85-90.672c69.34 0 125.55-56.211 125.55-125.55 0-69.34-56.211-125.55-125.55-125.55s-125.55 56.207-125.55 125.55c0 69.34 56.211 125.55 125.55 125.55zm-231.86 14.949c13.641 3.6562 35.012-34.801 48.641-85.652 13.625-50.852 14.344-94.844 0.70312-98.5-13.645-3.6562-39.145 25.863-52.773 76.715-13.625 50.852-10.215 103.78 3.4297 107.44zm108.63 177.32c25.023 16.426 73.043 19.301 118.57 19.301 50.492 0 106.48-0.17969 132.52-22.059 15.348-12.895 16.273-49.156 16.273-65.816 0-6.9297-1.832-17.258-6.9727-23.727-11-13.836-32.262-22.492-48.824-30.223-25.867-12.074-45.816-13.949-87.188-13.949-38.152 0-67.133 3.6719-94.164 13.949-21.676 8.2383-48.023 21.059-55.797 34.875-2.9258 5.1953 0 12.637 0 19.074 0 19.438 6.4883 56.047 25.574 68.574zm67.422-22.551c-7.7031 0-13.949-7.7734-13.949-46.5 0-38.723 6.2461-46.5 13.949-46.5 7.707 0 13.953 7.7773 13.953 46.5 0 38.727-6.2461 46.5-13.953 46.5zm111.6 0c-7.7031 0-13.949-7.7734-13.949-46.5 0-38.723 6.2461-46.5 13.949-46.5s13.949 7.7773 13.949 46.5c0 38.727-6.2461 46.5-13.949 46.5z" fill-rule="evenodd"/>
 </g>
</svg>
