<?xml version="1.0" encoding="UTF-8"?>
<svg fill="#FFF"  width="350" height="350" version="1.1" viewBox="0 0 700 700" xmlns="http://www.w3.org/2000/svg" xmlns:xlink="http://www.w3.org/1999/xlink">
 <g>
  <path d="m563.36 385.28c-17.922-9.5195-45.359-20.719-77.281-24.641-4.4805-0.55859-6.1602-6.1602-2.8008-8.9609 8.9609-7.2812 17.359-15.68 25.199-24.641 45.359-50.961 63.84-113.12 70.559-146.72 2.2383-11.199-8.3984-20.719-19.039-16.801-32.48 10.641-92.398 36.398-137.76 87.359-2.2383 2.2383-4.4805 5.0391-6.1602 7.2812-3.3594 3.9219-9.5195 1.6797-8.9609-3.3594 1.1211-11.199 1.6797-22.398 1.6797-34.16 0-85.68-28.559-159.6-45.922-197.12-5.0391-11.199-21.281-11.199-26.879 0-17.359 37.52-45.922 112-45.922 197.12 0 11.762 0.55859 22.961 1.6797 34.16 0.55859 5.0391-5.6016 7.2812-8.9609 3.3594-2.2383-2.2383-3.9219-5.0391-6.1602-7.2812-45.359-50.961-105.28-76.16-137.76-87.359-10.641-3.3594-21.281 5.6016-19.039 16.801 7.2812 33.602 25.762 95.762 70.559 146.72 7.8398 8.9609 16.801 17.359 25.199 24.641 3.3594 2.8008 1.6797 8.3984-2.8008 8.9609-31.922 3.9219-59.359 15.68-77.281 24.641-10.641 5.6016-10.641 20.719 0 25.762 21.84 11.199 58.238 26.32 99.121 26.32 9.5195 0 18.48-0.55859 27.441-2.2383 4.4805-0.55859 7.2812 4.4805 5.0391 7.8398-7.8398 11.199-13.441 22.961-17.922 32.48-4.4805 11.762 6.1602 23.52 18.48 19.602 16.238-5.6016 36.961-15.121 54.879-31.922 3.9219-3.3594 7.2812-7.2812 10.078-10.641l-5.6016 75.602c-0.55859 9.5195 7.2812 17.922 16.801 17.922h10.641c9.5195 0 17.359-8.3984 16.801-17.922l-5.6016-75.602c3.3594 3.9219 6.7188 7.2812 10.078 10.641 17.359 16.801 38.641 26.32 54.879 31.922 11.762 3.9219 22.961-7.8398 18.48-19.602-3.9219-10.078-9.5195-21.281-17.922-32.48-2.8008-3.9219 0.55859-8.9609 5.0391-7.8398 8.9609 1.1211 17.922 2.2383 27.441 2.2383 40.879 0 77.281-14.559 99.121-26.32 11.223-5.6016 11.223-20.164 0.58203-25.762z"/>
 </g>
</svg>
