<?xml version="1.0" encoding="UTF-8"?>
<svg fill="#FFF"  width="350" height="350" version="1.1" viewBox="0 0 700 700" xmlns="http://www.w3.org/2000/svg" xmlns:xlink="http://www.w3.org/1999/xlink">
 <g>
  <path d="m299.05 543.26c-33.953 0-65.75-16.66-85.035-44.559-32.344-46.855-20.539-111.27 26.281-143.62 17.32-11.977 37.586-18.301 58.605-18.301 33.953 0 65.703 16.672 84.996 44.57 15.707 22.688 21.57 50.137 16.613 77.254-4.9688 27.137-20.188 50.695-42.895 66.359-17.312 11.98-37.59 18.293-58.566 18.293zm-0.14844-186.34c-16.922 0-33.219 5.0977-47.145 14.723-37.699 26.051-47.188 77.895-21.172 115.6 15.547 22.469 41.125 35.875 68.473 35.875 16.895 0 33.18-5.0977 47.105-14.723 18.262-12.609 30.543-31.59 34.551-53.43 3.9688-21.828-0.75-43.902-13.371-62.172-15.52-22.465-41.141-35.875-68.441-35.875z"/>
  <path d="m324.23 486.72c-3.1758 0-6.3242-1.5195-8.2617-4.3516l-50.562-73.238c-3.1875-4.582-2.0508-10.859 2.5547-14.012 4.5312-3.1797 10.824-2.043 14.012 2.5586l50.566 73.238c3.1484 4.582 2 10.852-2.5586 14.012-1.7695 1.2148-3.7344 1.793-5.75 1.793z"/>
  <path d="m232.11 217.68c-20.973 0-41.238-6.3164-58.559-18.305-22.707-15.664-37.934-39.227-42.895-66.367-4.9609-27.109 0.90234-54.555 16.609-77.246 19.285-27.898 51.039-44.566 85-44.566 21.016 0 41.281 6.3164 58.605 18.301 46.816 32.344 58.633 96.77 26.273 143.62-19.277 27.895-51.07 44.566-85.035 44.566zm0.15625-186.34c-27.305 0-52.926 13.402-68.434 35.867-12.633 18.262-17.355 40.336-13.379 62.176 4.0078 21.836 16.289 40.812 34.551 53.426 13.926 9.6211 30.219 14.711 47.102 14.711 27.352 0 52.926-13.391 68.477-35.867 26.02-37.699 16.527-89.543-21.172-115.59-13.93-9.6211-30.219-14.719-47.145-14.719z"/>
  <path d="m206.93 161.13c-2.0117 0-3.9766-0.56641-5.7461-1.793-4.5625-3.1484-5.707-9.418-2.5586-14.012l50.566-73.227c3.1484-4.625 9.4453-5.75 14.012-2.5664 4.6016 3.1523 5.7383 9.4258 2.5547 14.004l-50.562 73.238c-1.9297 2.8438-5.0781 4.3555-8.2656 4.3555z"/>
  <path d="m407.59 317.32c-13.266 0-26.09-4.7617-36.137-13.418-11.199-9.6367-18.016-23.082-19.117-37.852-1.0977-14.758 3.625-29.07 13.266-40.273l108.05-125.54c19.176-22.254 55.805-25.07 78.16-5.8398 11.219 9.6445 17.988 23.078 19.078 37.84 1.1094 14.762-3.5781 29.074-13.254 40.297l-108.02 125.53c-10.547 12.215-25.855 19.25-42.023 19.25zm108.1-216.2c-10.316 0-20.07 4.4648-26.758 12.258l-108.06 125.54c-6.1367 7.1406-9.1211 16.234-8.418 25.641 0.70703 9.3867 4.9961 17.953 12.152 24.078 14.207 12.242 37.543 10.457 49.738-3.7188l108.03-125.53c6.1328-7.1406 9.1289-16.25 8.4609-25.637-0.71094-9.4062-5.0352-17.949-12.164-24.086-6.4141-5.5117-14.559-8.5391-22.98-8.5391z"/>
  <path d="m476.26 221.84c-2.3242 0-4.6406-0.8125-6.5742-2.4414l-29.238-25.211c-4.207-3.6406-4.6875-10-1.0586-14.207 3.6172-4.2461 9.9922-4.6758 14.195-1.0586l29.242 25.199c4.2109 3.6406 4.6875 9.9961 1.0625 14.207-1.9609 2.3242-4.7969 3.5117-7.6289 3.5117z"/>
 </g>
</svg>
